# AST/ASF file generated using VICON BodyLanguage
# -----------------------------------------------
:version 1.10
:name VICON
:units
  mass 1.0
  length 0.45
  angle deg
:documentation
   .ast/.asf automatically generated from VICON data using
   VICON BodyBuilder and BodyLanguage model FoxedUp or BRILLIANT.MOD
:root
   order TX TY TZ RX RY RZ
   axis XYZ
   position 0 0 0  
   orientation 0 0 0 
:bonedata
  begin
     id 1 
     name lhipjoint
     direction 0.522423 -0.726805 0.445902 
     length 2.25074 
     axis 0 0 0  XYZ
  end
  begin
     id 2 
     name lfemur
     direction 0.34202 -0.939693 0  
     length 6.54609  
     axis 0 0 20  XYZ
    dof rx ry rz
    limits (-160.0 20.0)
           (-70.0 70.0)
           (-60.0 70.0)
  end
  begin
     id 3 
     name ltibia
     direction 0.34202 -0.939693 0   
     length 7.7528   
     axis 0 0 20   XYZ
    dof rx
    limits (-10.0 170.0)
  end
  begin
     id 4 
     name lfoot
     direction 0.143696 -0.394801 0.90746   
     length 1.73269   
     axis -90 7.62852e-016 20   XYZ
    dof rx rz
    limits (-45.0 90.0)
           (-70.0 20.0)
  end
  begin
     id 5 
     name ltoes
     direction 1.53633e-011 -4.21912e-011 1   
     length 0.858383   
     axis -90 7.62852e-016 20   XYZ
    dof rx
    limits (-90.0 20.0)
  end
  begin
     id 6 
     name rhipjoint
     direction -0.515943 -0.73016 0.447961   
     length 2.2404  
     axis 0 0 0  XYZ 
  end
  begin
     id 7 
     name rfemur
     direction -0.34202 -0.939693 0   
     length 6.84377   
     axis 0 0 -20   XYZ
    dof rx ry rz
    limits (-160.0 20.0)
           (-70.0 70.0)
           (-70.0 60.0)
  end
  begin
     id 8 
     name rtibia
     direction -0.34202 -0.939693 0   
     length 7.57596   
     axis 0 0 -20   XYZ
    dof rx
    limits (-10.0 170.0)
 end
 begin
     id 9 
     name rfoot
     direction -0.0999372 -0.274575 0.956358   
     length 1.78783  
     axis -90 -7.62852e-016 -20   XYZ
    dof rx rz
    limits (-45.0 90.0)
           (-20.0 70.0)
  end
  begin
     id 10 
     name rtoes
     direction -1.53535e-011 -4.21895e-011 1   
     length 0.898614   
     axis -90 -7.62852e-016 -20   XYZ
    dof rx
    limits (-90.0 20.0)
  end
  begin
     id 11 
     name lowerback
     direction -0.011775 0.996164 -0.0867116   
     length 1.91499   
     axis 0 0 0   XYZ
    dof rx ry rz
    limits (-20.0 45.0)
           (-30.0 30.0)
           (-30.0 30.0)
  end
  begin
     id 12 
     name upperback
     direction -0.00189771 0.999673 -0.0254833   
     length 1.92213   
     axis 0 0 0   XYZ
    dof rx ry rz
    limits (-20.0 45.0)
           (-30.0 30.0)
           (-30.0 30.0)
  end
  begin
     id 13 
     name thorax
     direction 0.00335995 0.999878 0.0152401   
     length 1.93138   
     axis 0 0 0   XYZ
    dof rx ry rz
    limits (-20.0 45.0)
           (-30.0 30.0)
           (-30.0 30.0)
  end
  begin
     id 14 
     name lowerneck
     direction 0.00233191 0.998509 0.0545404   
     length 1.59408   
     axis 0 0 0   XYZ
    dof rx ry rz
    limits (-20.0 45.0)
           (-30.0 30.0)
           (-30.0 30.0)
  end
  begin
     id 15 
     name upperneck
     direction 0.07881 0.9956 -0.0506934   
     length 1.59344   
     axis 0 0 0   XYZ
    dof rx ry rz
    limits (-20.0 45.0)
           (-30.0 30.0)
           (-30.0 30.0)
  end
  begin
     id 16
     name head
     direction 0.0261681 0.999378 -0.0236299  
     length 1.60935  
     axis 0 0 0   XYZ
    dof rx ry rz
    limits (-20.0 45.0)
           (-30.0 30.0)
           (-30.0 30.0)
  end
  begin
     id 17 
     name lclavicle
     direction 0.96643 0.252035 0.0499195  
     length 3.82153  
     axis 0 0 0   XYZ
    dof ry rz
    limits (-20.0 10.0)
           (0.0 20.0)
  end
  begin
     id 18 
     name lhumerus
     direction 1 -4.48967e-011 -2.01614e-018   
     length 4.87796   
     axis 180 -30 -90   XYZ
    dof rx ry rz
    limits (-60.0 90.0)
           (-90.0 90.0)
           (-90.0 90.0)
  end
  begin
     id 19
     name lradius
     direction 1 -4.48958e-011 3.1409e-027   
     length 3.23169   
     axis 180 -30 -90   XYZ
    dof rx
    limits (-10.0 170.0)
  end
  begin
     id 20
     name lwrist
     direction 1 -4.48924e-011 1.0365e-027   
     length 1.61584   
     axis -2.56395e-016 90 90   XYZ
    dof ry
    limits (-180.0 0.0)
 end
  begin
     id 21 
     name lhand
     direction 1 -4.49055e-011 2.09488e-027   
     length 0.731324   
     axis -1.32723e-015 90 90   XYZ
    dof rx rz
    limits (-90.0 90.0)
           (-45.0 45.0)
  end
  begin
     id 22 
     name lfingers
     direction 1 -4.48935e-011 4.14981e-027   
     length 0.589612   
     axis -2.6545e-015 90 90   XYZ
    dof rx
    limits (0.0 90.0)
  end
  begin
     id 23
     name lthumb
     direction 0.707107 -6.35097e-011 0.707107   
     length 0.846569   
     axis -90 45 5.05613e-014   XYZ
    dof rx rz
    limits (-45.0 45.0)
           (-45.0 45.0)
  end
  begin
     id 24 
     name rclavicle
     direction -0.979337 0.201016 0.0221522   
     length 3.73827  
     axis 0 0 0   XYZ 
    dof ry rz
    limits (-10.0 20.0)
           (-20.0 0.0)
  end
  begin
     id 25 
     name rhumerus
     direction -1 -4.48971e-011 1.65907e-027  
     length 4.9143   
     axis 180 30 90   XYZ
    dof rx ry rz
    limits (-90.0 60.0)
           (-90.0 90.0)
           (-90.0 90.0)
  end
  begin
     id 26 
     name rradius
     direction -1 -4.4894e-011 2.17871e-028   
     length 3.29093   
     axis 180 30 90   XYZ
    dof rx
    limits (-10.0 170.0)
  end
  begin
     id 27 
     name rwrist
     direction -1 -4.48971e-011 1.04038e-027   
     length 1.64546   
     axis -2.56395e-016 -90 -90   XYZ
    dof ry
    limits (-180.0 0.0)
  end
  begin
     id 28
     name rhand
     direction -1 -4.49017e-011 2.08843e-027   
     length 0.54512   
     axis -1.32723e-015 -90 -90   XYZ
    dof rx rz
    limits (-90.0 90.0)
           (-45.0 45.0)
  end
  begin
     id 29
     name rfingers
     direction -1 -4.48918e-011 4.1439e-027   
     length 0.43949   
     axis -2.6545e-015 -90 -90   XYZ
    dof rx
    limits (0.0 90.0)
  end
  begin
     id 30
     name rthumb
     direction -0.707107 -6.35065e-011 0.707107   
     length 0.631022   
     axis -90 -45 -5.05613e-014   XYZ
    dof rx rz
    limits (-45.0 45.0)
           (-45.0 45.0)
  end
:hierarchy
  begin
    root lhipjoint rhipjoint lowerback
    lhipjoint lfemur
    lfemur ltibia
    ltibia lfoot
    lfoot ltoes
    rhipjoint rfemur
    rfemur rtibia
    rtibia rfoot
    rfoot rtoes
    lowerback upperback
    upperback thorax
    thorax lowerneck lclavicle rclavicle
    lowerneck upperneck
    upperneck head
    lclavicle lhumerus
    lhumerus lradius
    lradius lwrist
    lwrist lhand lthumb
    lhand lfingers
    rclavicle rhumerus
    rhumerus rradius
    rradius rwrist
    rwrist rhand rthumb
    rhand rfingers
  end

#!OML:ASF H:\BreakDance\Project 1\Capture day 1\Session 1\Male.ASF
:FULLY-SPECIFIED
:DEGREES
141
root 12.4467 16.1329 1.4657 -161.327 -88.8213 160.812
lowerback -9.0853 1.29159 1.12352
upperback 3.1632 1.78639 -2.77707
thorax 8.59724 1.00558 -3.29463
lowerneck -1.272 -1.24319 3.33251
upperneck 20.0437 -3.20429 3.41448
head 6.30705 -1.31044 0.316428
rclavicle -3.10601e-015 -1.03368e-014
rhumerus -27.3856 5.65851 -90.5996
rradius 52.2967
rwrist 20.5337
rhand -26.2392 -34.6461
rfingers 7.12502
rthumb 0.314751 -64.6256
lclavicle -3.10601e-015 -1.03368e-014
lhumerus -24.6791 -11.5479 83.4003
lradius 50.9798
lwrist -13.0702
lhand -21.9081 -30.1963
lfingers 7.12502
lthumb 4.49751 -0.264001
rfemur -13.8012 3.72094 12.5855
rtibia 41.7091
rfoot -34.033 -12.1427
rtoes 22.2469
lfemur -13.3399 2.75599 -11.0966
ltibia 37.9174
lfoot -27.4606 16.6628
ltoes -30.6428
142
root 12.4466 16.1325 1.46586 -161.425 -88.8242 160.908
lowerback -9.07962 1.30543 1.14056
upperback 3.16675 1.80371 -2.78942
thorax 8.60011 1.01535 -3.31471
lowerneck -1.29304 -1.26075 3.36896
upperneck 20.0394 -3.23012 3.40774
head 6.30899 -1.32035 0.306533
rclavicle 7.77745e-015 8.74653e-015
rhumerus -27.3811 5.60684 -90.598
rradius 52.2968
rwrist 20.5731
rhand -26.2681 -34.6018
rfingers 7.12502
rthumb 0.286839 -64.5814
lclavicle 7.77745e-015 8.74653e-015
lhumerus -24.6513 -11.6094 83.3954
lradius 50.9681
lwrist -13.0773
lhand -21.9179 -30.1867
lfingers 7.12502
lthumb 4.48805 -0.254251
rfemur -13.7953 3.72962 12.5911
rtibia 41.6962
rfoot -34.0515 -12.1651
rtoes 22.4486
lfemur -13.3486 2.76898 -11.0919
ltibia 37.9375
lfoot -27.4924 16.6581
ltoes -30.7328
143
root 12.4462 16.1325 1.46579 -161.843 -88.8274 161.321
lowerback -9.07571 1.32256 1.16384
upperback 3.17408 1.82484 -2.80326
thorax 8.6087 1.02745 -3.33928
lowerneck -1.31378 -1.27961 3.41411
upperneck 20.0329 -3.25827 3.40113
head 6.3101 -1.33081 0.295104
rclavicle -5.36719e-015 -1.43125e-014
rhumerus -27.3779 5.53436 -90.6029
rradius 52.2965
rwrist 20.6225
rhand -26.2969 -34.4916
rfingers 7.12502
rthumb 0.258952 -64.4712
lclavicle -5.36719e-015 -1.43125e-014
lhumerus -24.622 -11.6682 83.3873
lradius 50.9612
lwrist -13.0871
lhand -21.9127 -30.168
lfingers 7.12502
lthumb 4.4931 -0.235645
rfemur -13.7815 3.75131 12.6049
rtibia 41.6856
rfoot -34.0386 -12.1793
rtoes 22.6158
lfemur -13.3486 2.79315 -11.0776
ltibia 37.9527
lfoot -27.5185 16.6445
ltoes -30.7917
144
root 12.4453 16.1324 1.46569 -162.744 -88.833 162.213
lowerback -9.0748 1.33924 1.19838
upperback 3.18189 1.84395 -2.81581
thorax 8.6198 1.03922 -3.36916
lowerneck -1.32208 -1.29541 3.45837
upperneck 20.0191 -3.28213 3.39959
head 6.3068 -1.3393 0.285853
rclavicle -1.48592e-014 -4.77083e-015
rhumerus -27.3816 5.45757 -90.6142
rradius 52.3024
rwrist 20.6709
rhand -26.3314 -34.3781
rfingers 7.12502
rthumb 0.22566 -64.3577
lclavicle -1.48592e-014 -4.77083e-015
lhumerus -24.5981 -11.7138 83.3768
lradius 50.9582
lwrist -13.0984
lhand -21.9108 -30.137
lfingers 7.12502
lthumb 4.49489 -0.204724
rfemur -13.7664 3.76168 12.6298
rtibia 41.6767
rfoot -33.9886 -12.2045
rtoes 22.6587
lfemur -13.3433 2.81297 -11.0519
ltibia 37.9638
lfoot -27.5372 16.6316
ltoes -30.8045
145
root 12.4441 16.1323 1.46569 -163.687 -88.8402 163.15
lowerback -9.07979 1.34965 1.23314
upperback 3.18715 1.85441 -2.82516
thorax 8.63087 1.04669 -3.39712
lowerneck -1.31745 -1.30569 3.48811
upperneck 20.0011 -3.29764 3.40374
head 6.30011 -1.34474 0.28148
rclavicle 1.90088e-014 1.03368e-014
rhumerus -27.3949 5.39625 -90.6282
rradius 52.3174
rwrist 20.7089
rhand -26.3684 -34.2879
rfingers 7.12502
rthumb 0.189927 -64.2676
lclavicle 1.90088e-014 1.03368e-014
lhumerus -24.5851 -11.7356 83.366
lradius 50.9574
lwrist -13.1105
lhand -21.9135 -30.1059
lfingers 7.12502
lthumb 4.49228 -0.173566
rfemur -13.7544 3.75563 12.6533
rtibia 41.6687
rfoot -33.9299 -12.2262
rtoes 22.6235
lfemur -13.3385 2.82446 -11.0263
ltibia 37.9728
lfoot -27.5495 16.6147
ltoes -30.7633
146
root 12.4427 16.1321 1.4659 -164.011 -88.8472 163.472
lowerback -9.09153 1.35084 1.25406
upperback 3.18797 1.85396 -2.83169
thorax 8.63964 1.04794 -3.41593
lowerneck -1.30778 -1.3097 3.48984
upperneck 19.9894 -3.30504 3.41944
head 6.29504 -1.34753 0.28592
rclavicle -1.46355e-014 3.97569e-015
rhumerus -27.4165 5.36124 -90.6393
rradius 52.3383
rwrist 20.7304
rhand -26.3923 -34.2407
rfingers 7.12502
rthumb 0.166839 -64.2204
lclavicle -1.46355e-014 3.97569e-015
lhumerus -24.5894 -11.7314 83.3586
lradius 50.9593
lwrist -13.1256
lhand -21.9156 -30.0966
lfingers 7.12502
lthumb 4.49031 -0.164154
rfemur -13.7473 3.72811 12.6584
rtibia 41.6613
rfoot -33.8845 -12.231
rtoes 22.5294
lfemur -13.3365 2.82777 -11.0167
ltibia 37.9809
lfoot -27.557 16.5925
ltoes -30.7133
147
root 12.4412 16.132 1.46634 -163.624 -88.8511 163.088
lowerback -9.11169 1.34419 1.25751
upperback 3.18806 1.84481 -2.83336
thorax 8.65103 1.04385 -3.42097
lowerneck -1.29958 -1.30878 3.46384
upperneck 19.9853 -3.30519 3.4404
head 6.29295 -1.34827 0.297011
rclavicle 4.5472e-015 -1.43125e-014
rhumerus -27.4378 5.35761 -90.6404
rradius 52.3606
rwrist 20.7356
rhand -26.402 -34.241
rfingers 7.12502
rthumb 0.157476 -64.2207
lclavicle 4.5472e-015 -1.43125e-014
lhumerus -24.6055 -11.7043 83.3587
lradius 50.9668
lwrist -13.1385
lhand -21.9141 -30.1221
lfingers 7.12502
lthumb 4.49173 -0.189734
rfemur -13.743 3.68342 12.6427
rtibia 41.6553
rfoot -33.8699 -12.2082
rtoes 22.4404
lfemur -13.3349 2.82438 -11.0263
ltibia 37.9873
lfoot -27.5627 16.5733
ltoes -30.686
148
root 12.4398 16.1316 1.46679 -163.086 -88.8509 162.551
lowerback -9.1385 1.33541 1.25079
upperback 3.19396 1.83374 -2.82897
thorax 8.67186 1.03825 -3.41404
lowerneck -1.28812 -1.30577 3.4224
upperneck 19.9722 -3.30038 3.46291
head 6.28751 -1.34767 0.311557
rclavicle -6.03808e-015 0
rhumerus -27.446 5.37128 -90.6304
rradius 52.3811
rwrist 20.73
rhand -26.3976 -34.2679
rfingers 7.12502
rthumb 0.161746 -64.2476
lclavicle -6.03808e-015 0
lhumerus -24.6191 -11.6697 83.3642
lradius 50.9808
lwrist -13.1441
lhand -21.9099 -30.1729
lfingers 7.12502
lthumb 4.49575 -0.240599
rfemur -13.7378 3.6422 12.6225
rtibia 41.6519
rfoot -33.8909 -12.1689
rtoes 22.4035
lfemur -13.33 2.81923 -11.0414
ltibia 37.991
lfoot -27.5694 16.5566
ltoes -30.6804
149
root 12.4388 16.1313 1.46707 -163.038 -88.8466 162.504
lowerback -9.16346 1.33162 1.24864
upperback 3.20602 1.82867 -2.8214
thorax 8.69879 1.03586 -3.40534
lowerneck -1.27722 -1.30436 3.38334
upperneck 19.9451 -3.29674 3.48714
head 6.27773 -1.34739 0.326264
rclavicle 1.01629e-014 -3.81667e-014
rhumerus -27.433 5.38447 -90.6147
rradius 52.394
rwrist 20.7196
rhand -26.3886 -34.3197
rfingers 7.12502
rthumb 0.170411 -64.2994
lclavicle 1.01629e-014 -3.81667e-014
lhumerus -24.6262 -11.6478 83.3707
lradius 51.006
lwrist -13.1446
lhand -21.8973 -30.2313
lfingers 7.12502
lthumb 4.50792 -0.299304
rfemur -13.7341 3.62187 12.6155
rtibia 41.6512
rfoot -33.9294 -12.1381
rtoes 22.4615
lfemur -13.3226 2.81517 -11.0466
ltibia 37.9911
lfoot -27.5727 16.5428
ltoes -30.6988
150
root 12.4382 16.1312 1.46719 -163.508 -88.8362 162.976
lowerback -9.18298 1.33613 1.25599
upperback 3.22307 1.83374 -2.81574
thorax 8.72914 1.03907 -3.40244
lowerneck -1.28589 -1.30804 3.36823
upperneck 19.9175 -3.30022 3.50024
head 6.27077 -1.34913 0.332827
rclavicle -5.31749e-015 2.46493e-014
rhumerus -27.3965 5.38986 -90.5991
rradius 52.3948
rwrist 20.7121
rhand -26.3935 -34.386
rfingers 7.12502
rthumb 0.165722 -64.3657
lclavicle -5.31749e-015 2.46493e-014
lhumerus -24.6203 -11.6456 83.3737
lradius 51.0384
lwrist -13.1413
lhand -21.8821 -30.2546
lfingers 7.12502
lthumb 4.52264 -0.322887
rfemur -13.7352 3.62475 12.6221
rtibia 41.6525
rfoot -33.9479 -12.133
rtoes 22.5792
lfemur -13.3139 2.81329 -11.0414
ltibia 37.9875
lfoot -27.5744 16.5363
ltoes -30.7006
151
root 12.4377 16.1313 1.46714 -164.329 -88.823 163.796
lowerback -9.19742 1.34499 1.26933
upperback 3.24 1.84392 -2.81065
thorax 8.75703 1.04511 -3.40272
lowerneck -1.30415 -1.31339 3.37091
upperneck 19.8964 -3.3067 3.50469
head 6.26724 -1.35139 0.333369
rclavicle -2.5842e-015 3.81667e-014
rhumerus -27.3552 5.39188 -90.5852
rradius 52.388
rwrist 20.7146
rhand -26.4089 -34.4414
rfingers 7.12502
rthumb 0.1508 -64.4211
lclavicle -2.5842e-015 3.81667e-014
lhumerus -24.6084 -11.6485 83.3757
lradius 51.0681
lwrist -13.1389
lhand -21.8484 -30.2662
lfingers 7.12502
lthumb 4.55516 -0.335191
rfemur -13.7386 3.64457 12.6391
rtibia 41.6548
rfoot -33.9202 -12.1621
rtoes 22.6512
lfemur -13.3039 2.80997 -11.0281
ltibia 37.9811
lfoot -27.5816 16.5399
ltoes -30.647
152
root 12.4373 16.1315 1.467 -165.437 -88.8123 164.904
lowerback -9.20538 1.35164 1.28551
upperback 3.2505 1.85038 -2.80106
thorax 8.77379 1.0492 -3.40047
lowerneck -1.31231 -1.31492 3.36639
upperneck 19.883 -3.30909 3.51474
head 6.2646 -1.35203 0.337173
rclavicle 7.23079e-015 -1.59028e-015
rhumerus -27.3276 5.40383 -90.572
rradius 52.3831
rwrist 20.7225
rhand -26.4303 -34.4826
rfingers 7.12502
rthumb 0.130118 -64.4623
lclavicle 7.23079e-015 -1.59028e-015
lhumerus -24.6022 -11.6386 83.3831
lradius 51.0877
lwrist -13.1423
lhand -21.8106 -30.2719
lfingers 7.12502
lthumb 4.5917 -0.34166
rfemur -13.7422 3.67385 12.6659
rtibia 41.6573
rfoot -33.8618 -12.2148
rtoes 22.7012
lfemur -13.295 2.80042 -11.0067
ltibia 37.9731
lfoot -27.5889 16.5566
ltoes -30.5695
153
root 12.437 16.1319 1.46678 -166.525 -88.8061 165.991
lowerback -9.20473 1.35196 1.29886
upperback 3.25064 1.84831 -2.78797
thorax 8.77335 1.04862 -3.39435
lowerneck -1.30239 -1.31157 3.3502
upperneck 19.8768 -3.30468 3.52687
head 6.26128 -1.3505 0.344119
rclavicle -7.03201e-015 1.27222e-014
rhumerus -27.3228 5.42844 -90.5621
rradius 52.3856
rwrist 20.732
rhand -26.4522 -34.5013
rfingers 7.12502
rthumb 0.108978 -64.481
lclavicle -7.03201e-015 1.27222e-014
lhumerus -24.6057 -11.6124 83.3954
lradius 51.093
lwrist -13.1522
lhand -21.7763 -30.275
lfingers 7.12502
lthumb 4.62476 -0.345449
rfemur -13.7451 3.70886 12.6953
rtibia 41.6596
rfoot -33.8165 -12.268
rtoes 22.7532
lfemur -13.2899 2.79366 -10.9833
ltibia 37.9652
lfoot -27.5915 16.5765
ltoes -30.5042
